<mxfile host="app.diagrams.net" modified="2023-09-11T14:17:30.846Z" agent="Mozilla/5.0 (Macintosh; Intel Mac OS X 10_15_7) AppleWebKit/537.36 (KHTML, like Gecko) Chrome/116.0.0.0 Safari/537.36" etag="QaQ4ChAVIL62f1dz-3pX" version="21.7.4" type="github">
  <diagram id="3228e29e-7158-1315-38df-8450db1d8a1d" name="Page-1">
    <mxGraphModel dx="935" dy="362" grid="0" gridSize="10" guides="1" tooltips="1" connect="1" arrows="1" fold="1" page="1" pageScale="1" pageWidth="1700" pageHeight="450" background="#EFF1F3" math="0" shadow="0">
      <root>
        <mxCell id="0" />
        <mxCell id="1" parent="0" />
        <mxCell id="nzwpzUQgBmsU5mZzszNc-6" value="&lt;div style=&quot;font-family: Menlo, Monaco, &amp;quot;Courier New&amp;quot;, monospace; line-height: 24px;&quot;&gt;&lt;div style=&quot;&quot;&gt;&lt;font color=&quot;#333333&quot; style=&quot;font-size: 30px;&quot;&gt;tag&lt;/font&gt;&lt;/div&gt;&lt;/div&gt;" style="rounded=1;whiteSpace=wrap;html=1;strokeWidth=5;fontSize=30;strokeColor=none;fillColor=#9AC7BF;align=center;" parent="1" vertex="1">
          <mxGeometry x="62" y="1094.48" width="66" height="74" as="geometry" />
        </mxCell>
        <mxCell id="nzwpzUQgBmsU5mZzszNc-7" value="&lt;div style=&quot;font-family: Menlo, Monaco, &amp;quot;Courier New&amp;quot;, monospace; line-height: 24px;&quot;&gt;&lt;div style=&quot;&quot;&gt;&lt;font color=&quot;#333333&quot; style=&quot;font-size: 30px;&quot;&gt;value&lt;/font&gt;&lt;/div&gt;&lt;/div&gt;" style="rounded=1;whiteSpace=wrap;html=1;strokeWidth=5;fontSize=30;strokeColor=none;fillColor=#FDD276;align=center;" parent="1" vertex="1">
          <mxGeometry x="185" y="1094.48" width="109" height="74" as="geometry" />
        </mxCell>
        <mxCell id="nzwpzUQgBmsU5mZzszNc-8" value="&lt;div style=&quot;font-family: Menlo, Monaco, &amp;quot;Courier New&amp;quot;, monospace; line-height: 24px;&quot;&gt;&lt;div style=&quot;&quot;&gt;&lt;font color=&quot;#333333&quot; style=&quot;font-size: 30px;&quot;&gt;tag&lt;/font&gt;&lt;/div&gt;&lt;/div&gt;" style="rounded=1;whiteSpace=wrap;html=1;strokeWidth=5;fontSize=30;strokeColor=none;fillColor=#9AC7BF;align=center;" parent="1" vertex="1">
          <mxGeometry x="1470" y="1094.48" width="73.36" height="74" as="geometry" />
        </mxCell>
        <mxCell id="nzwpzUQgBmsU5mZzszNc-9" value="&lt;div style=&quot;font-family: Menlo, Monaco, &amp;quot;Courier New&amp;quot;, monospace; line-height: 24px;&quot;&gt;&lt;div style=&quot;&quot;&gt;&lt;font color=&quot;#333333&quot; style=&quot;font-size: 30px;&quot;&gt;value&lt;/font&gt;&lt;/div&gt;&lt;/div&gt;" style="rounded=1;whiteSpace=wrap;html=1;strokeWidth=5;fontSize=30;strokeColor=none;fillColor=#FDD276;align=center;" parent="1" vertex="1">
          <mxGeometry x="1543.36" y="1094.48" width="98.64" height="74" as="geometry" />
        </mxCell>
        <mxCell id="hhmZNT4cyZmR0nEcOgbV-8" value="&lt;div style=&quot;font-family: Menlo, Monaco, &amp;quot;Courier New&amp;quot;, monospace; line-height: 24px;&quot;&gt;&lt;div style=&quot;&quot;&gt;&lt;font color=&quot;#333333&quot; style=&quot;font-size: 30px;&quot;&gt;len&lt;/font&gt;&lt;/div&gt;&lt;/div&gt;" style="rounded=1;whiteSpace=wrap;html=1;strokeWidth=5;fontSize=30;strokeColor=none;fillColor=#F19C99;align=center;" parent="1" vertex="1">
          <mxGeometry x="128" y="1094.48" width="57" height="74" as="geometry" />
        </mxCell>
        <mxCell id="U-DJsKMkMCvAjCsMOjJg-2" value="&lt;div style=&quot;&quot;&gt;&lt;font style=&quot;font-size: 39px; background-color: initial;&quot; color=&quot;#4a919b&quot;&gt;10&amp;nbsp;&lt;/font&gt;&lt;font style=&quot;font-size: 39px; background-color: initial;&quot; color=&quot;#f19c99&quot;&gt;3&lt;/font&gt;&lt;font color=&quot;#4a919b&quot; style=&quot;font-size: 39px; background-color: initial;&quot;&gt;&amp;nbsp;&lt;/font&gt;&lt;font style=&quot;font-size: 39px; background-color: initial;&quot; color=&quot;#c89932&quot;&gt;50 46 53&lt;/font&gt;&lt;/div&gt;" style="text;html=1;strokeColor=none;fillColor=none;align=left;verticalAlign=middle;whiteSpace=wrap;rounded=0;" parent="1" vertex="1">
          <mxGeometry x="58" y="1033.9799999999998" width="243" height="50" as="geometry" />
        </mxCell>
        <mxCell id="8Wo9BOlvC_cUprFf0G_a-1" value="&lt;div style=&quot;&quot;&gt;&lt;font style=&quot;font-size: 39px; background-color: initial;&quot; color=&quot;#4a919b&quot;&gt;24&amp;nbsp;&amp;nbsp;&lt;/font&gt;&lt;font style=&quot;font-size: 39px; background-color: initial;&quot; color=&quot;#c89932&quot;&gt;18&lt;/font&gt;&lt;/div&gt;" style="text;html=1;strokeColor=none;fillColor=none;align=left;verticalAlign=middle;whiteSpace=wrap;rounded=0;" parent="1" vertex="1">
          <mxGeometry x="1485" y="1033.98" width="124" height="50" as="geometry" />
        </mxCell>
        <mxCell id="8Wo9BOlvC_cUprFf0G_a-2" value="&lt;div style=&quot;font-family: Menlo, Monaco, &amp;quot;Courier New&amp;quot;, monospace; line-height: 24px;&quot;&gt;&lt;div style=&quot;&quot;&gt;&lt;font color=&quot;#333333&quot; style=&quot;font-size: 30px;&quot;&gt;tag&lt;/font&gt;&lt;/div&gt;&lt;/div&gt;" style="rounded=1;whiteSpace=wrap;html=1;strokeWidth=5;fontSize=30;strokeColor=none;fillColor=#9AC7BF;align=center;" parent="1" vertex="1">
          <mxGeometry x="294" y="1094.48" width="57" height="74" as="geometry" />
        </mxCell>
        <mxCell id="8Wo9BOlvC_cUprFf0G_a-3" value="&lt;div style=&quot;font-family: Menlo, Monaco, &amp;quot;Courier New&amp;quot;, monospace; line-height: 24px;&quot;&gt;&lt;div style=&quot;&quot;&gt;&lt;font color=&quot;#333333&quot; style=&quot;font-size: 30px;&quot;&gt;value&lt;/font&gt;&lt;/div&gt;&lt;/div&gt;" style="rounded=1;whiteSpace=wrap;html=1;strokeWidth=5;fontSize=30;strokeColor=none;fillColor=#FDD276;align=center;" parent="1" vertex="1">
          <mxGeometry x="422" y="1094.48" width="228" height="74" as="geometry" />
        </mxCell>
        <mxCell id="8Wo9BOlvC_cUprFf0G_a-4" value="&lt;div style=&quot;font-family: Menlo, Monaco, &amp;quot;Courier New&amp;quot;, monospace; line-height: 24px;&quot;&gt;&lt;div style=&quot;&quot;&gt;&lt;font color=&quot;#333333&quot; style=&quot;font-size: 30px;&quot;&gt;len&lt;/font&gt;&lt;/div&gt;&lt;/div&gt;" style="rounded=1;whiteSpace=wrap;html=1;strokeWidth=5;fontSize=30;strokeColor=none;fillColor=#F19C99;align=center;" parent="1" vertex="1">
          <mxGeometry x="351" y="1094.48" width="71" height="74" as="geometry" />
        </mxCell>
        <mxCell id="8Wo9BOlvC_cUprFf0G_a-5" value="&lt;div style=&quot;&quot;&gt;&lt;font style=&quot;font-size: 39px;&quot; color=&quot;#4a919b&quot;&gt;18 &lt;/font&gt;&lt;font color=&quot;#f19c99&quot; style=&quot;font-size: 39px;&quot;&gt;4&lt;/font&gt;&lt;font style=&quot;font-size: 39px;&quot; color=&quot;#4a919b&quot;&gt; &lt;/font&gt;&lt;font color=&quot;#c89932&quot; style=&quot;font-size: 39px;&quot;&gt;115 105 110 103&lt;/font&gt;&lt;font style=&quot;font-size: 39px;&quot; color=&quot;#4a919b&quot;&gt; 18 &lt;/font&gt;&lt;font color=&quot;#f19c99&quot; style=&quot;font-size: 39px;&quot;&gt;5&lt;/font&gt;&lt;font style=&quot;font-size: 39px;&quot; color=&quot;#4a919b&quot;&gt; &lt;/font&gt;&lt;font color=&quot;#c89932&quot; style=&quot;font-size: 39px;&quot;&gt;100 97 110 99 101&lt;/font&gt;&lt;font style=&quot;font-size: 39px;&quot; color=&quot;#4a919b&quot;&gt; 18&amp;nbsp;&amp;nbsp;&lt;/font&gt;&lt;font color=&quot;#f19c99&quot; style=&quot;font-size: 39px;&quot;&gt;4&amp;nbsp;&lt;/font&gt;&lt;font color=&quot;#c89932&quot; style=&quot;font-size: 39px;&quot;&gt;114 101 97 100&lt;/font&gt;&lt;/div&gt;" style="text;html=1;strokeColor=none;fillColor=none;align=left;verticalAlign=middle;whiteSpace=wrap;rounded=0;" parent="1" vertex="1">
          <mxGeometry x="301" y="998.4799999999999" width="1177" height="121" as="geometry" />
        </mxCell>
        <mxCell id="8Wo9BOlvC_cUprFf0G_a-6" value="&lt;div style=&quot;font-family: Menlo, Monaco, &amp;quot;Courier New&amp;quot;, monospace; line-height: 24px;&quot;&gt;&lt;div style=&quot;&quot;&gt;&lt;font color=&quot;#333333&quot; style=&quot;font-size: 30px;&quot;&gt;tag&lt;/font&gt;&lt;/div&gt;&lt;/div&gt;" style="rounded=1;whiteSpace=wrap;html=1;strokeWidth=5;fontSize=30;strokeColor=none;fillColor=#9AC7BF;align=center;" parent="1" vertex="1">
          <mxGeometry x="650" y="1094.48" width="77" height="74" as="geometry" />
        </mxCell>
        <mxCell id="8Wo9BOlvC_cUprFf0G_a-7" value="&lt;div style=&quot;font-family: Menlo, Monaco, &amp;quot;Courier New&amp;quot;, monospace; line-height: 24px;&quot;&gt;&lt;div style=&quot;&quot;&gt;&lt;font color=&quot;#333333&quot; style=&quot;font-size: 30px;&quot;&gt;value&lt;/font&gt;&lt;/div&gt;&lt;/div&gt;" style="rounded=1;whiteSpace=wrap;html=1;strokeWidth=5;fontSize=30;strokeColor=none;fillColor=#FDD276;align=center;" parent="1" vertex="1">
          <mxGeometry x="798" y="1094.48" width="281" height="74" as="geometry" />
        </mxCell>
        <mxCell id="8Wo9BOlvC_cUprFf0G_a-8" value="&lt;div style=&quot;font-family: Menlo, Monaco, &amp;quot;Courier New&amp;quot;, monospace; line-height: 24px;&quot;&gt;&lt;div style=&quot;&quot;&gt;&lt;font color=&quot;#333333&quot; style=&quot;font-size: 30px;&quot;&gt;len&lt;/font&gt;&lt;/div&gt;&lt;/div&gt;" style="rounded=1;whiteSpace=wrap;html=1;strokeWidth=5;fontSize=30;strokeColor=none;fillColor=#F19C99;align=center;" parent="1" vertex="1">
          <mxGeometry x="727" y="1094.48" width="71" height="74" as="geometry" />
        </mxCell>
        <mxCell id="8Wo9BOlvC_cUprFf0G_a-9" value="&lt;div style=&quot;font-family: Menlo, Monaco, &amp;quot;Courier New&amp;quot;, monospace; line-height: 24px;&quot;&gt;&lt;div style=&quot;&quot;&gt;&lt;font color=&quot;#333333&quot; style=&quot;font-size: 30px;&quot;&gt;tag&lt;/font&gt;&lt;/div&gt;&lt;/div&gt;" style="rounded=1;whiteSpace=wrap;html=1;strokeWidth=5;fontSize=30;strokeColor=none;fillColor=#9AC7BF;align=center;" parent="1" vertex="1">
          <mxGeometry x="1076" y="1094.48" width="77" height="74" as="geometry" />
        </mxCell>
        <mxCell id="8Wo9BOlvC_cUprFf0G_a-10" value="&lt;div style=&quot;font-family: Menlo, Monaco, &amp;quot;Courier New&amp;quot;, monospace; line-height: 24px;&quot;&gt;&lt;div style=&quot;&quot;&gt;&lt;font color=&quot;#333333&quot; style=&quot;font-size: 30px;&quot;&gt;value&lt;/font&gt;&lt;/div&gt;&lt;/div&gt;" style="rounded=1;whiteSpace=wrap;html=1;strokeWidth=5;fontSize=30;strokeColor=none;fillColor=#FDD276;align=center;" parent="1" vertex="1">
          <mxGeometry x="1224" y="1094.48" width="246" height="74" as="geometry" />
        </mxCell>
        <mxCell id="8Wo9BOlvC_cUprFf0G_a-11" value="&lt;div style=&quot;font-family: Menlo, Monaco, &amp;quot;Courier New&amp;quot;, monospace; line-height: 24px;&quot;&gt;&lt;div style=&quot;&quot;&gt;&lt;font color=&quot;#333333&quot; style=&quot;font-size: 30px;&quot;&gt;len&lt;/font&gt;&lt;/div&gt;&lt;/div&gt;" style="rounded=1;whiteSpace=wrap;html=1;strokeWidth=5;fontSize=30;strokeColor=none;fillColor=#F19C99;align=center;" parent="1" vertex="1">
          <mxGeometry x="1153" y="1094.48" width="71" height="74" as="geometry" />
        </mxCell>
        <mxCell id="8Wo9BOlvC_cUprFf0G_a-12" value="&lt;font color=&quot;#c89932&quot; size=&quot;1&quot; style=&quot;&quot;&gt;&lt;b style=&quot;font-size: 40px;&quot;&gt;sing&lt;/b&gt;&lt;/font&gt;" style="text;html=1;strokeColor=none;fillColor=none;align=center;verticalAlign=middle;whiteSpace=wrap;rounded=0;" parent="1" vertex="1">
          <mxGeometry x="450" y="975.4799999999999" width="154" height="46" as="geometry" />
        </mxCell>
        <mxCell id="8Wo9BOlvC_cUprFf0G_a-13" value="&lt;font color=&quot;#c89932&quot; size=&quot;1&quot; style=&quot;&quot;&gt;&lt;b style=&quot;font-size: 40px;&quot;&gt;dance&lt;/b&gt;&lt;/font&gt;" style="text;html=1;strokeColor=none;fillColor=none;align=center;verticalAlign=middle;whiteSpace=wrap;rounded=0;" parent="1" vertex="1">
          <mxGeometry x="844" y="975.4799999999999" width="154" height="46" as="geometry" />
        </mxCell>
        <mxCell id="8Wo9BOlvC_cUprFf0G_a-14" value="&lt;font color=&quot;#c89932&quot; size=&quot;1&quot; style=&quot;&quot;&gt;&lt;b style=&quot;font-size: 40px;&quot;&gt;read&lt;/b&gt;&lt;/font&gt;" style="text;html=1;strokeColor=none;fillColor=none;align=center;verticalAlign=middle;whiteSpace=wrap;rounded=0;" parent="1" vertex="1">
          <mxGeometry x="1207.3600000000001" y="975.4799999999999" width="154" height="46" as="geometry" />
        </mxCell>
        <mxCell id="8Wo9BOlvC_cUprFf0G_a-17" value="" style="shape=curlyBracket;whiteSpace=wrap;html=1;rounded=1;labelPosition=left;verticalLabelPosition=middle;align=right;verticalAlign=middle;rotation=-90;strokeWidth=5;strokeColor=#4A919B;" parent="1" vertex="1">
          <mxGeometry x="875.75" y="618" width="20" height="1167" as="geometry" />
        </mxCell>
        <mxCell id="8Wo9BOlvC_cUprFf0G_a-18" value="&lt;font color=&quot;#4a919b&quot; size=&quot;1&quot; style=&quot;&quot;&gt;&lt;b style=&quot;font-size: 40px;&quot;&gt;Hobby&lt;/b&gt;&lt;/font&gt;" style="text;html=1;strokeColor=none;fillColor=none;align=center;verticalAlign=middle;whiteSpace=wrap;rounded=0;" parent="1" vertex="1">
          <mxGeometry x="770.06" y="1233.48" width="154" height="46" as="geometry" />
        </mxCell>
        <mxCell id="8Wo9BOlvC_cUprFf0G_a-19" value="" style="shape=curlyBracket;whiteSpace=wrap;html=1;rounded=1;labelPosition=left;verticalLabelPosition=middle;align=right;verticalAlign=middle;rotation=-90;strokeWidth=5;strokeColor=#4A919B;" parent="1" vertex="1">
          <mxGeometry x="169.5" y="1087.98" width="20" height="230" as="geometry" />
        </mxCell>
        <mxCell id="8Wo9BOlvC_cUprFf0G_a-20" value="&lt;font color=&quot;#4a919b&quot; size=&quot;1&quot; style=&quot;&quot;&gt;&lt;b style=&quot;font-size: 40px;&quot;&gt;PracticeTime&lt;/b&gt;&lt;/font&gt;" style="text;html=1;strokeColor=none;fillColor=none;align=center;verticalAlign=middle;whiteSpace=wrap;rounded=0;" parent="1" vertex="1">
          <mxGeometry x="111" y="1233.48" width="154" height="46" as="geometry" />
        </mxCell>
        <mxCell id="8Wo9BOlvC_cUprFf0G_a-21" value="&lt;font color=&quot;#4a919b&quot; size=&quot;1&quot; style=&quot;&quot;&gt;&lt;b style=&quot;font-size: 40px;&quot;&gt;Age&lt;/b&gt;&lt;/font&gt;" style="text;html=1;strokeColor=none;fillColor=none;align=center;verticalAlign=middle;whiteSpace=wrap;rounded=0;" parent="1" vertex="1">
          <mxGeometry x="1480" y="1233.48" width="154" height="46" as="geometry" />
        </mxCell>
        <mxCell id="8Wo9BOlvC_cUprFf0G_a-22" value="" style="shape=curlyBracket;whiteSpace=wrap;html=1;rounded=1;labelPosition=left;verticalLabelPosition=middle;align=right;verticalAlign=middle;rotation=-90;strokeWidth=5;strokeColor=#4A919B;" parent="1" vertex="1">
          <mxGeometry x="1549.99" y="1116.51" width="20" height="169.98" as="geometry" />
        </mxCell>
        <mxCell id="8Wo9BOlvC_cUprFf0G_a-24" value="&lt;font color=&quot;#c89932&quot; size=&quot;1&quot; style=&quot;&quot;&gt;&lt;b style=&quot;font-size: 40px;&quot;&gt;2.5&lt;/b&gt;&lt;/font&gt;" style="text;html=1;strokeColor=none;fillColor=none;align=center;verticalAlign=middle;whiteSpace=wrap;rounded=0;" parent="1" vertex="1">
          <mxGeometry x="150" y="975.4799999999999" width="154" height="46" as="geometry" />
        </mxCell>
      </root>
    </mxGraphModel>
  </diagram>
</mxfile>
